<mxfile host="Electron" agent="Mozilla/5.0 (Windows NT 10.0; Win64; x64) AppleWebKit/537.36 (KHTML, like Gecko) draw.io/26.0.4 Chrome/128.0.6613.186 Electron/32.2.5 Safari/537.36" version="26.0.4">
  <diagram name="第 1 页" id="T4m_t-oiLTT8RT2huylh">
    <mxGraphModel dx="478" dy="281" grid="1" gridSize="10" guides="1" tooltips="1" connect="1" arrows="1" fold="1" page="1" pageScale="1" pageWidth="827" pageHeight="1169" math="0" shadow="0">
      <root>
        <mxCell id="0" />
        <mxCell id="1" parent="0" />
        <mxCell id="tb1pQ6eI7bN-LxdYPT7E-4" style="edgeStyle=orthogonalEdgeStyle;rounded=0;orthogonalLoop=1;jettySize=auto;html=1;exitX=0;exitY=1;exitDx=0;exitDy=0;entryX=1;entryY=0;entryDx=0;entryDy=0;" edge="1" parent="1" source="T90Q7wzPU0TjcJJRm9CW-2" target="T90Q7wzPU0TjcJJRm9CW-3">
          <mxGeometry relative="1" as="geometry" />
        </mxCell>
        <mxCell id="tb1pQ6eI7bN-LxdYPT7E-5" value="Notification" style="edgeLabel;html=1;align=center;verticalAlign=middle;resizable=0;points=[];" vertex="1" connectable="0" parent="tb1pQ6eI7bN-LxdYPT7E-4">
          <mxGeometry x="-0.3737" relative="1" as="geometry">
            <mxPoint x="8" y="12" as="offset" />
          </mxGeometry>
        </mxCell>
        <mxCell id="tb1pQ6eI7bN-LxdYPT7E-6" style="edgeStyle=orthogonalEdgeStyle;rounded=0;orthogonalLoop=1;jettySize=auto;html=1;exitX=1;exitY=0.5;exitDx=0;exitDy=0;" edge="1" parent="1" source="T90Q7wzPU0TjcJJRm9CW-2" target="T90Q7wzPU0TjcJJRm9CW-4">
          <mxGeometry relative="1" as="geometry" />
        </mxCell>
        <mxCell id="tb1pQ6eI7bN-LxdYPT7E-8" value="直接调用" style="edgeLabel;html=1;align=center;verticalAlign=middle;resizable=0;points=[];" vertex="1" connectable="0" parent="tb1pQ6eI7bN-LxdYPT7E-6">
          <mxGeometry x="-0.3193" y="-1" relative="1" as="geometry">
            <mxPoint x="-16" y="-13" as="offset" />
          </mxGeometry>
        </mxCell>
        <mxCell id="T90Q7wzPU0TjcJJRm9CW-2" value="Command" style="ellipse;whiteSpace=wrap;html=1;aspect=fixed;" parent="1" vertex="1">
          <mxGeometry x="280" y="200" width="80" height="80" as="geometry" />
        </mxCell>
        <mxCell id="tb1pQ6eI7bN-LxdYPT7E-10" style="edgeStyle=orthogonalEdgeStyle;rounded=0;orthogonalLoop=1;jettySize=auto;html=1;exitX=1;exitY=0;exitDx=0;exitDy=0;entryX=0;entryY=0;entryDx=0;entryDy=0;" edge="1" parent="1" source="T90Q7wzPU0TjcJJRm9CW-3" target="T90Q7wzPU0TjcJJRm9CW-4">
          <mxGeometry relative="1" as="geometry" />
        </mxCell>
        <mxCell id="tb1pQ6eI7bN-LxdYPT7E-11" value="直接调用" style="edgeLabel;html=1;align=center;verticalAlign=middle;resizable=0;points=[];" vertex="1" connectable="0" parent="tb1pQ6eI7bN-LxdYPT7E-10">
          <mxGeometry x="-0.0115" relative="1" as="geometry">
            <mxPoint x="1" y="-12" as="offset" />
          </mxGeometry>
        </mxCell>
        <mxCell id="tb1pQ6eI7bN-LxdYPT7E-14" style="edgeStyle=orthogonalEdgeStyle;rounded=0;orthogonalLoop=1;jettySize=auto;html=1;exitX=0.5;exitY=0;exitDx=0;exitDy=0;entryX=0;entryY=0.5;entryDx=0;entryDy=0;" edge="1" parent="1" source="T90Q7wzPU0TjcJJRm9CW-3" target="T90Q7wzPU0TjcJJRm9CW-2">
          <mxGeometry relative="1" as="geometry" />
        </mxCell>
        <mxCell id="tb1pQ6eI7bN-LxdYPT7E-15" value="Notification" style="edgeLabel;html=1;align=center;verticalAlign=middle;resizable=0;points=[];" vertex="1" connectable="0" parent="tb1pQ6eI7bN-LxdYPT7E-14">
          <mxGeometry x="-0.4639" relative="1" as="geometry">
            <mxPoint x="30" y="-47" as="offset" />
          </mxGeometry>
        </mxCell>
        <mxCell id="T90Q7wzPU0TjcJJRm9CW-3" value="Mediator" style="ellipse;whiteSpace=wrap;html=1;aspect=fixed;" parent="1" vertex="1">
          <mxGeometry x="160" y="320" width="80" height="80" as="geometry" />
        </mxCell>
        <mxCell id="tb1pQ6eI7bN-LxdYPT7E-12" style="edgeStyle=orthogonalEdgeStyle;rounded=0;orthogonalLoop=1;jettySize=auto;html=1;exitX=0;exitY=0.5;exitDx=0;exitDy=0;entryX=1;entryY=0.5;entryDx=0;entryDy=0;" edge="1" parent="1" source="T90Q7wzPU0TjcJJRm9CW-4" target="T90Q7wzPU0TjcJJRm9CW-3">
          <mxGeometry relative="1" as="geometry" />
        </mxCell>
        <mxCell id="tb1pQ6eI7bN-LxdYPT7E-13" value="Notification" style="edgeLabel;html=1;align=center;verticalAlign=middle;resizable=0;points=[];" vertex="1" connectable="0" parent="tb1pQ6eI7bN-LxdYPT7E-12">
          <mxGeometry x="0.0024" relative="1" as="geometry">
            <mxPoint y="12" as="offset" />
          </mxGeometry>
        </mxCell>
        <mxCell id="T90Q7wzPU0TjcJJRm9CW-4" value="Proxy" style="ellipse;whiteSpace=wrap;html=1;aspect=fixed;" parent="1" vertex="1">
          <mxGeometry x="400" y="320" width="80" height="80" as="geometry" />
        </mxCell>
        <mxCell id="tb1pQ6eI7bN-LxdYPT7E-1" value="Facade" style="ellipse;whiteSpace=wrap;html=1;aspect=fixed;" vertex="1" parent="1">
          <mxGeometry x="120" y="80" width="80" height="80" as="geometry" />
        </mxCell>
        <mxCell id="tb1pQ6eI7bN-LxdYPT7E-17" style="edgeStyle=orthogonalEdgeStyle;rounded=0;orthogonalLoop=1;jettySize=auto;html=1;exitX=0;exitY=0;exitDx=0;exitDy=0;entryX=0.5;entryY=1;entryDx=0;entryDy=0;" edge="1" parent="1" source="T90Q7wzPU0TjcJJRm9CW-3" target="T90Q7wzPU0TjcJJRm9CW-3">
          <mxGeometry relative="1" as="geometry">
            <Array as="points">
              <mxPoint x="130" y="332" />
              <mxPoint x="130" y="420" />
              <mxPoint x="200" y="420" />
            </Array>
          </mxGeometry>
        </mxCell>
        <mxCell id="tb1pQ6eI7bN-LxdYPT7E-18" value="Notification" style="edgeLabel;html=1;align=center;verticalAlign=middle;resizable=0;points=[];" vertex="1" connectable="0" parent="tb1pQ6eI7bN-LxdYPT7E-17">
          <mxGeometry x="0.4021" relative="1" as="geometry">
            <mxPoint x="6" y="-10" as="offset" />
          </mxGeometry>
        </mxCell>
      </root>
    </mxGraphModel>
  </diagram>
</mxfile>
